<svg width="1200" height="900" viewBox="0 0 1200 900" fill="none" xmlns="http://www.w3.org/2000/svg">
  <defs>
    <linearGradient id="bg" x1="158" y1="104" x2="1050" y2="796" gradientUnits="userSpaceOnUse">
      <stop stop-color="#0B1020"/>
      <stop offset="0.5" stop-color="#12203F"/>
      <stop offset="1" stop-color="#1D4ED8"/>
    </linearGradient>
    <linearGradient id="panel" x1="252" y1="176" x2="930" y2="744" gradientUnits="userSpaceOnUse">
      <stop stop-color="white" stop-opacity="0.18"/>
      <stop offset="1" stop-color="white" stop-opacity="0.06"/>
    </linearGradient>
    <linearGradient id="accent" x1="284" y1="289" x2="860" y2="596" gradientUnits="userSpaceOnUse">
      <stop stop-color="#34D399"/>
      <stop offset="1" stop-color="#F97316"/>
    </linearGradient>
    <filter id="blur" x="0" y="0" width="1200" height="900" filterUnits="userSpaceOnUse" color-interpolation-filters="sRGB">
      <feGaussianBlur stdDeviation="60"/>
    </filter>
  </defs>

  <rect width="1200" height="900" rx="48" fill="url(#bg)"/>
  <g opacity="0.8" filter="url(#blur)">
    <circle cx="233" cy="150" r="140" fill="#22C55E"/>
    <circle cx="1012" cy="728" r="170" fill="#60A5FA"/>
    <circle cx="930" cy="150" r="130" fill="#F97316"/>
  </g>

  <rect x="146" y="122" width="908" height="656" rx="36" fill="url(#panel)" stroke="rgba(255,255,255,0.18)"/>

  <rect x="214" y="205" width="420" height="430" rx="26" fill="rgba(4,10,24,0.38)" stroke="rgba(255,255,255,0.12)"/>
  <path d="M338 314L284 368L338 422" stroke="white" stroke-opacity="0.9" stroke-width="24" stroke-linecap="round" stroke-linejoin="round"/>
  <path d="M512 314L566 368L512 422" stroke="white" stroke-opacity="0.9" stroke-width="24" stroke-linecap="round" stroke-linejoin="round"/>
  <rect x="308" y="480" width="232" height="18" rx="9" fill="rgba(255,255,255,0.25)"/>
  <rect x="308" y="522" width="174" height="18" rx="9" fill="rgba(255,255,255,0.16)"/>
  <rect x="308" y="564" width="134" height="18" rx="9" fill="rgba(255,255,255,0.12)"/>

  <g transform="translate(718 238)">
    <circle cx="46" cy="68" r="18" fill="#F8FAFC"/>
    <circle cx="206" cy="68" r="18" fill="#F8FAFC"/>
    <circle cx="126" cy="160" r="18" fill="#F8FAFC"/>
    <circle cx="286" cy="160" r="18" fill="#F8FAFC"/>
    <circle cx="206" cy="252" r="18" fill="#F8FAFC"/>
    <path d="M46 68H206M206 68L126 160M126 160H286M286 160L206 252" stroke="url(#accent)" stroke-width="18" stroke-linecap="round"/>
    <path d="M126 160C126 222 126 252 206 252" stroke="url(#accent)" stroke-width="18" stroke-linecap="round"/>
    <path d="M338 78L372 112L338 146" stroke="#93C5FD" stroke-width="18" stroke-linecap="round" stroke-linejoin="round"/>
  </g>

  <text x="214" y="720" fill="white" font-family="-apple-system, BlinkMacSystemFont, 'Segoe UI', sans-serif" font-size="72" font-weight="700" letter-spacing="-1.5">Git To GitHub</text>
  <text x="214" y="778" fill="rgba(255,255,255,0.78)" font-family="-apple-system, BlinkMacSystemFont, 'Segoe UI', sans-serif" font-size="32" font-weight="500" letter-spacing="-0.4">Confident project publishing, branches, and safe solo iteration</text>
</svg>
